<?xml version="1.0" encoding="UTF-8" standalone="no"?>
<svg width="248px" height="281px" viewBox="0 0 248 281" version="1.1" xmlns="http://www.w3.org/2000/svg" xmlns:xlink="http://www.w3.org/1999/xlink" xmlns:sketch="http://www.bohemiancoding.com/sketch/ns">
    <!-- Generator: Sketch 3.4.4 (17249) - http://www.bohemiancoding.com/sketch -->
    <title>Slice 1</title>
    <desc>Created with Sketch.</desc>
    <defs></defs>
    <g id="Page-1" stroke="none" stroke-width="1" fill="none" fill-rule="evenodd" sketch:type="MSPage">
        <g sketch:type="MSLayerGroup" transform="translate(0.000000, 1.000000)" id="doobie" fill="#E35E31">
            <g sketch:type="MSShapeGroup">
                <path d="M87.2644209,139.550107 C87.2644209,159.722795 103.641508,176.075955 123.84371,176.075955 C144.045913,176.075955 160.423,159.722795 160.423,139.550107 C160.423,119.377418 144.045913,103.024258 123.84371,103.024258 C103.641508,103.024258 87.2644209,119.377418 87.2644209,139.550107 L87.2644209,139.550107 Z M206.355079,44.9861286 L206.355079,178.695333 C206.355079,183.614809 203.715315,188.157726 199.437599,190.598499 L130.6811,229.830005 C126.456014,232.240617 121.268477,232.238332 117.045679,229.82315 L48.4617165,190.600784 C44.1904073,188.158183 41.5552205,183.619379 41.5552205,178.704016 L41.5552205,100.458988 C41.5552205,95.5436248 44.1899496,91.00482 48.4617165,88.5622191 L117.047052,49.3398533 C121.269392,46.9246717 126.45693,46.9223868 130.682015,49.3329984 L164.705581,68.7467626 L164.705581,21.2213818 L130.680185,1.80624668 C126.455099,-0.604365004 121.267561,-0.602080064 117.044764,1.8131015 L6.9060383,64.7988433 C2.63472912,67.2414441 0,71.7802489 0,76.6956118 L0,202.467849 C0,207.382754 2.63472912,211.921559 6.9060383,214.36416 L117.043391,277.349902 C121.266188,279.765083 126.453268,279.767368 130.678354,277.356757 L241.082063,214.361875 C245.359779,211.921102 248,207.378185 248,202.458252 L248,76.7047516 C248,71.7848188 245.359779,67.2419011 241.082063,64.8011282 L206.355079,44.9861286 L206.355079,44.9861286 Z" id="Path"></path>
            </g>
        </g>
    </g>
</svg>